<svg t="1737451645145" class="icon" viewBox="0 0 1024 1024" version="1.1" xmlns="http://www.w3.org/2000/svg" p-id="13611" width="200" height="200"><path d="M0 0h1024v1024H0z" fill="#ffffff" fill-opacity="0" p-id="13612"></path><path d="M210.928 112.32h588.32c82.08 0 148.64 66.432 148.64 148.384v614.928c0 81.936-66.56 148.368-148.64 148.368h-588.32c-82.096 0-148.656-66.432-148.656-148.368V260.704c0-81.952 66.56-148.368 148.656-148.368z" fill="#3e8bf0" p-id="13613"></path><path d="M260.144 851.296c0-26.08 22.016-47.168 49.152-47.168h392.96c27.136 0 49.152 21.088 49.152 47.168 0 26-22.016 47.152-49.152 47.152h-392.96c-27.2 0-49.152-21.152-49.152-47.152zM494.768 444a17.12 17.12 0 0 1 0 24.8l-63.488 61.168a18.768 18.768 0 0 1-25.76 0l-77.056-74.336a145.2 145.2 0 0 0 35.072 158.784 159.12 159.12 0 0 0 164.912 33.84l65.184 62.816a64.8 64.8 0 0 0 89.184 0 59.136 59.136 0 0 0 18.448-42.944 59.136 59.136 0 0 0-18.448-42.96l-65.248-62.816a145.28 145.28 0 0 0-35.072-158.784 159.12 159.12 0 0 0-164.848-33.904l77.12 74.336zM506.08 13.84c25.84 0 50.56 10.496 68.448 29.088a94.592 94.592 0 0 1 26.4 69.408h101.456v91.536a50.56 50.56 0 0 1-50.608 50.512H360.224a50.56 50.56 0 0 1-50.608-50.512V112.336l101.776-0.064-0.128-3.728a94.768 94.768 0 0 1 85.6-94.272l9.232-0.432z" fill="#ffffff" p-id="13614"></path></svg>
