<svg t="1744042296218" class="icon" viewBox="0 0 1024 1024" version="1.1" xmlns="http://www.w3.org/2000/svg" p-id="18279" width="200" height="200"><path d="M64 386.368c-0.256-15.872 6.08-31.136 17.568-42.08a58.88 58.88 0 0 1 42.464-17.216h60.032v268.672H124.032a58.88 58.88 0 0 1-42.464-17.216A56.896 56.896 0 0 1 64 536.48v-150.112z m666.624-246.72a137.696 137.696 0 0 1 74.176-42.976 74.752 74.752 0 0 1 58.976 17.664 166.592 166.592 0 0 1 43.904 63.104c12.704 29.92 22.592 60.992 29.568 92.768a929.6 929.6 0 0 1 17.024 107.072A1063.68 1063.68 0 0 1 960 483.904c0 33.92-2.368 67.776-7.168 101.344a582.08 582.08 0 0 1-20.96 95.136c-8.064 27.008-18.88 53.12-32.256 77.92a146.976 146.976 0 0 1-41.408 49.728c-14.016 10.56-31.84 14.72-49.088 11.456a102.912 102.912 0 0 1-54.848-37.28 208.736 208.736 0 0 0-74.72-54.016 643.136 643.136 0 0 0-102.848-36.352 1119.552 1119.552 0 0 0-112.736-23.904 13745.92 13745.92 0 0 0-104.832-16.256 1412.576 1412.576 0 0 1-79.36-13.824c-21.152-4.48-33.344-9.92-35.84-16.256v-299.264c5.92-11.744 17.12-19.904 30.08-21.984a532.448 532.448 0 0 1 66.688-16.256c26.88-5.12 57.344-10.688 91.392-16.736a952.448 952.448 0 0 0 103.744-24.864 690.88 690.88 0 0 0 103.232-40.16 369.408 369.408 0 0 0 91.552-62.72v0.064zM387.84 725.824c3.072 7.648 7.008 15.936 11.296 24.864 3.936 8.256 8.96 17.92 15.232 28.672 6.272 10.752 13.984 22.624 22.944 35.392 10.752 15.264 21.664 31.36 32.8 48.256a288 288 0 0 1 25.28 45.888c5.312 10.464 7.136 22.4 5.184 33.952-2.144 8.96-11.296 13.408-27.072 13.408H419.2a86.624 86.624 0 0 1-35.296-7.168c-11.52-5.344-21.984-12.8-30.816-21.984a261.632 261.632 0 0 1-30.464-37.76 746.528 746.528 0 0 1-33.856-54.528 309.952 309.952 0 0 1-30.464-63.552 334.304 334.304 0 0 1-11.488-45.44 88.064 88.064 0 0 1 0-36.32c6.112 0.832 12.16 2.112 18.112 3.84 6.976 1.536 13.984 3.136 20.96 4.768 8.256 1.92 17.728 3.84 28.48 5.728 10.944 2.56 20.608 4.928 29.216 7.168s16.32 4.608 23.296 7.168c7.52 2.56 14.528 5.12 20.96 7.648z" fill="#3e8bf0" p-id="18280"></path></svg>