<svg t="1744042427829" class="icon" viewBox="0 0 1024 1024" version="1.1" xmlns="http://www.w3.org/2000/svg" p-id="23621" width="200" height="200"><path d="M927.204693 610.929778c-10.808889 51.2-31.288889 99.953778-60.302222 143.644444l60.302222 76.344889-97.678222 96.881778-76.913778-59.847111a395.662222 395.662222 0 0 1-144.668444 59.847111L596.168249 1024H458.38336l-11.776-96.199111a421.717333 421.717333 0 0 1-144.725333-59.847111l-76.856889 59.847111-97.678222-96.881778 60.302222-76.344889a387.982222 387.982222 0 0 1-60.302222-143.644444l-96.938667-11.776V462.449778l96.938667-11.662222a393.557333 393.557333 0 0 1 31.857777-94.151112l109.397334 83.171556a270.051556 270.051556 0 0 0 34.417777 247.921778A274.659556 274.659556 0 0 0 526.934471 802.702222c151.665778 0 274.261333-121.628444 274.261333-272.099555a270.791111 270.791111 0 0 0-80.270222-192.568889 274.659556 274.659556 0 0 0-279.153778-65.934222L346.881138 168.334222a403.456 403.456 0 0 1 99.726222-33.678222L458.38336 38.456889h137.784889l11.776 96.199111a422.456889 422.456889 0 0 1 144.668444 59.790222l76.913778-59.790222 97.678222 96.881778-60.302222 76.344889c29.582222 43.406222 50.119111 92.216889 60.302222 143.587555l96.881778 11.719111v136.760889l-96.881778 10.979556z m-427.235555-206.904889a165.774222 165.774222 0 0 1 187.676444 59.790222c35.328 48.241778 41.187556 111.843556 15.189334 165.603556l-81.692445-113.379556a43.463111 43.463111 0 0 0-60.928-10.296889l-59.619555 42.609778a43.064889 43.064889 0 0 0-10.410667 60.472889l81.806222 113.436444a165.205333 165.205333 0 0 1-153.770667-67.299555 164.295111 164.295111 0 0 1-15.928888-163.669334 12.288 12.288 0 0 1-3.470223-2.673777L17.323804 126.350222a58.026667 58.026667 0 0 1 0-82.488889L44.971804 16.440889a60.529778 60.529778 0 0 1 83.114667 0l364.999111 380.017778a37.831111 37.831111 0 0 1 6.883556 7.566222zM119.098027 65.251556a36.408889 36.408889 0 0 0-51.939556 0 35.84 35.84 0 0 0 0 51.484444 36.181333 36.181333 0 0 0 51.939556 0 35.84 35.84 0 0 0 0-51.484444z" fill="#3e8bf0" p-id="23622"></path></svg>