<svg t="1744042185372" class="icon" viewBox="0 0 1024 1024" version="1.1" xmlns="http://www.w3.org/2000/svg" p-id="15290" width="200" height="200"><path d="M663.4496 403.456a36.352 36.352 0 0 1-3.9936 0.256h-69.632a34.2016 34.2016 0 0 1-34.816-33.4848H373.6064c12.7488-30.8224 26.0096-80.8448 0-133.9392h181.4016c0-18.432 15.616-33.4336 34.816-33.4336h69.632a36.352 36.352 0 0 1 3.9936 0.2048l73.216-88.064a35.7376 35.7376 0 0 1 45.1584-7.8336l174.08 100.4544a32.768 32.768 0 0 1 11.9296 45.9264 35.6352 35.6352 0 0 1-47.7696 11.4688L772.096 179.712l-77.824 93.4912v60.2112l77.824 93.5424 147.968-85.4016a35.6352 35.6352 0 0 1 47.7696 11.4688 32.768 32.768 0 0 1-11.9296 45.9264l-174.08 100.4544a35.7376 35.7376 0 0 1-45.1072-7.7824l-73.2672-88.064z m-337.92 401.92L102.4 441.856c78.7968 69.3248 190.5664 48.128 238.2336-13.4656l228.864 377.0368h159.5904c19.2 0 34.816 15.0016 34.816 33.4848v100.4032c0 18.432-15.616 33.4848-34.816 33.4848H172.032a34.2016 34.2016 0 0 1-34.816-33.4848v-100.4032c0-18.432 15.616-33.4848 34.816-33.4848h153.5488zM230.4 153.6C159.744 153.6 102.4 210.944 102.4 281.6a128.0512 128.0512 0 0 0 256 0C358.4 210.944 301.056 153.6 230.4 153.6m0 53.76c40.96 0 74.24 33.28 74.24 74.24 0 40.96-33.28 74.24-74.24 74.24-40.96 0-74.24-33.28-74.24-74.24 0-40.96 33.28-74.24 74.24-74.24" fill="#3e8bf0" p-id="15291"></path><path d="M204.8 281.6a25.6 25.6 0 1 1-51.2 0 25.6 25.6 0 0 1 51.2 0" fill="#3e8bf0" p-id="15292"></path></svg>