<svg t="1744041924555" class="icon" viewBox="0 0 1024 1024" version="1.1" xmlns="http://www.w3.org/2000/svg" p-id="9245" width="200" height="200"><path d="M348.458667 842.282667c21.162667 1.152 41.045333 10.197333 55.808 24.917333l559.786666-150.016a42.666667 42.666667 0 0 1 22.101334 82.432l-559.786667 150.016a85.333333 85.333333 0 1 1-155.306667-66.56L114.944 300.586667 25.472 237.994667a42.666667 42.666667 0 0 1 48.896-69.973334l102.229333 71.466667a42.666667 42.666667 0 0 1 16.768 23.936l155.093334 578.858667z m-24.576-395.776L280.704 285.44a42.666667 42.666667 0 0 1 30.165333-52.224l466.688-125.013333a42.666667 42.666667 0 0 1 52.266667 30.122666l43.178667 161.109334a42.666667 42.666667 0 0 1-30.165334 52.266666l-466.730666 125.013334a42.666667 42.666667 0 0 1-52.224-30.165334z m81.877333 305.578666L362.581333 590.933333a42.666667 42.666667 0 0 1 30.165334-52.266666l466.688-125.013334a42.666667 42.666667 0 0 1 52.266666 30.165334l43.178667 161.109333a42.666667 42.666667 0 0 1-30.165333 52.266667l-466.730667 125.013333a42.666667 42.666667 0 0 1-52.224-30.165333z" fill="#3e8bf0" p-id="9246"></path></svg>